<svg width="46" height="46" viewBox="0 0 46 46" fill="none" xmlns="http://www.w3.org/2000/svg">
<path d="M38.9072 6.17924C39.5768 6.81389 39.9095 7.85608 39.8167 9.32961C39.7242 10.7992 39.21 12.6134 38.2981 14.6605C36.4766 18.7496 33.1175 23.6513 28.6403 28.376C24.1631 33.1008 19.4491 36.7185 15.4638 38.7572C13.4688 39.7777 11.6854 40.3881 10.2229 40.5595C8.75642 40.7314 7.69729 40.4559 7.02754 39.8214C6.35779 39.1867 6.02589 38.144 6.11867 36.6703C6.21119 35.2007 6.72406 33.3865 7.63592 31.3394C9.45742 27.2503 12.8172 22.3493 17.2944 17.6245C21.7716 12.8999 26.485 9.28146 30.4703 7.24272C32.4653 6.22213 34.25 5.61176 35.7125 5.44038C37.1789 5.26861 38.2375 5.54463 38.9072 6.17924Z" stroke="white" stroke-width="1.13663"/>
<path d="M6.17924 7.05935C6.81389 6.38972 7.85608 6.05708 9.32961 6.14981C10.7992 6.24233 12.6134 6.75659 14.6605 7.66845C18.7496 9.48998 23.6513 12.849 28.376 17.3262C33.1008 21.8035 36.7185 26.5175 38.7572 30.5028C39.7777 32.4977 40.3881 34.2812 40.5595 35.7436C40.7314 37.2101 40.4559 38.2693 39.8214 38.939C39.1867 39.6088 38.144 39.9407 36.6703 39.8479C35.2007 39.7554 33.3865 39.2425 31.3394 38.3306C27.2503 36.5091 22.3493 33.1493 17.6246 28.6721C12.8999 24.195 9.28146 19.4815 7.24272 15.4963C6.22213 13.5012 5.61176 11.7166 5.44038 10.2541C5.26861 8.78767 5.54463 7.72904 6.17924 7.05935Z" stroke="white" stroke-width="1.13663"/>
<path d="M19.1274 18.2999C20.9922 15.982 22.5768 9.38969 23.1359 6.3833C23.3974 9.31708 24.4343 15.8077 26.4909 18.2999C28.5474 20.7922 35.5101 21.7929 38.7343 21.9817C35.6916 22.6861 28.4429 24.6962 26.4909 26.7527C24.5389 28.8092 23.666 35.83 23.1359 39.1268C22.7656 36.0115 21.4454 29.064 19.1274 26.5717C16.8094 24.0795 10.4495 22.5045 7.55933 21.9817C10.6383 21.7203 17.2626 20.6179 19.1274 18.2999Z" fill="url(#paint0_linear_282_662)" stroke="white"/>
<defs>
<linearGradient id="paint0_linear_282_662" x1="18.5828" y1="14.03" x2="27.798" y2="29.8898" gradientUnits="userSpaceOnUse">
<stop stop-color="#171C40"/>
<stop offset="0.5" stop-color="#626DBF"/>
<stop offset="1" stop-color="#363F80"/>
</linearGradient>
</defs>
</svg>
